<svg version="1.2" xmlns="http://www.w3.org/2000/svg" viewBox="0 0 887 328" width="887" height="328">
	<style>
		.s0 { opacity: .98;fill: #38475a } 
	</style>
	<path id="Path 0" fill-rule="evenodd" class="s0" d="m918-325v5h-249.17c-137.04 0-248.98-0.18-248.75-0.39 0.23-0.22 42.5-0.7 93.92-1.07 51.42-0.37 105.42-0.84 120-1.04 14.58-0.2 69.7-0.67 122.5-1.04 52.8-0.38 96.08-0.75 96.17-0.82 0.09-0.08 14.83-0.25 65.33-0.64zm-1025.16 9h11.16v1020h248.17c136.49 0 247.98 0.17 247.75 0.38-0.23 0.22-40.47 0.68-89.42 1.04-48.95 0.35-106.32 0.84-127.5 1.09-21.17 0.24-71.12 0.68-111 0.97-39.87 0.3-94.44 0.76-170 1.52l-0.08-10.75c-0.04-5.91-0.22-20.88-0.4-33.25-0.19-12.38-0.61-59.85-0.95-105.5-0.33-45.65-0.82-102.35-1.07-126-0.26-23.65-0.7-74.27-1-112.5-0.29-38.23-0.74-91.55-1-118.5-0.26-26.95-0.71-79.6-1-117-0.29-37.4-0.74-90.5-1-118-0.26-27.5-0.71-79.7-1-116-0.28-36.3-0.77-88.84-1.09-116.75zm664.16 348l-0.43 5.75c-0.24 3.16-1.11 9.57-1.95 14.25-0.83 4.68-1.74 10.52-2.01 13-0.28 2.48-2.74 20.25-5.47 39.5-2.73 19.25-6.47 45.43-8.3 58.18-1.84 12.74-3.11 23.4-2.84 23.68 0.28 0.27 11.08-0.82 24-2.44 12.93-1.62 36.1-4.94 51.5-7.39 15.4-2.45 30.48-4.93 33.5-5.53 3.03-0.59 12.7-2.44 21.5-4.11 8.8-1.67 27.25-5.3 41-8.07 13.75-2.77 27.93-5.65 31.5-6.42 3.58-0.76 9.88-2.06 14-2.9 4.13-0.84 10.43-2.15 14-2.92 3.58-0.77 20-4.14 36.5-7.5 16.5-3.35 31.02-6.32 32.25-6.59 1.24-0.27 2.25-0.04 2.25 0.51 0 0.55-1.01 1.43-2.25 1.94-1.23 0.52-9.45 3.24-18.25 6.04-8.8 2.8-23.87 7.6-33.5 10.66-9.62 3.06-18.4 5.92-19.5 6.35-1.1 0.43-6.95 2.39-13 4.36-6.05 1.97-22.7 7.21-37 11.66-14.3 4.44-28.92 8.96-32.5 10.04-3.57 1.08-8.3 2.47-10.5 3.09-2.2 0.62-6.47 1.91-9.5 2.88-3.02 0.96-11.35 3.57-18.5 5.8-7.15 2.23-25.15 7.64-40 12.03-14.85 4.38-31.27 9.15-36.5 10.59-5.22 1.45-11.3 3.12-13.5 3.71-2.2 0.6-5.12 1.43-6.5 1.85-1.37 0.42-4.52 1.32-7 2-2.47 0.68-5.62 1.58-7 2-1.37 0.42-4.52 1.32-7 2-2.47 0.68-5.62 1.6-7 2.04-1.37 0.45-8.8 2.46-16.5 4.47-7.7 2.02-16.92 4.5-20.5 5.52-3.57 1.02-12.8 3.52-20.5 5.55-7.7 2.04-17.15 4.57-21 5.63-3.85 1.06-11.27 3.08-16.5 4.49-5.22 1.41-11.07 2.93-13 3.37-1.92 0.44-5.07 1.23-7 1.76-1.92 0.53-15.87 4.12-31 7.98-15.12 3.87-27.61 6.95-27.76 6.86-0.14-0.09-1.77-10.07-3.61-22.17-1.85-12.1-3.31-22.11-3.25-22.23 0.07-0.13 6.2-1.39 13.62-2.8 7.43-1.41 18.23-3.48 24-4.6 5.78-1.12 13.43-2.63 17-3.36 3.58-0.72 9.88-2.06 14-2.97 4.13-0.91 9.75-2.1 12.5-2.64 2.75-0.54 14-2.83 25-5.09 11-2.26 20.08-4.15 20.18-4.21 0.1-0.05 3.15-21.02 6.78-46.6 3.64-25.57 6.79-47.62 7.01-49 0.22-1.37 0.68-4.3 1.03-6.5 0.34-2.2 0.85-5.8 1.13-8 0.28-2.2 0.67-5.12 0.87-6.5 0.21-1.37 0.63-4.98 0.95-8 0.32-3.02 0.88-6.85 1.25-8.5 0.38-1.65 0.62-3.23 0.54-3.5-0.08-0.27 0.29-3.31 0.81-6.75 0.84-5.49 0.72-6.59-0.96-9-1.05-1.51-4.46-6.8-7.57-11.75-3.11-4.95-5.41-9.56-5.11-10.25 0.42-0.97 10-1.25 85.59-1.25zm-207 1.56c29.87 0.04 44.73 0.44 50 1.35 4.13 0.71 9.75 1.87 12.5 2.58 2.75 0.71 8.38 2.48 12.5 3.93 4.13 1.45 10.43 4.4 14 6.56 3.58 2.15 8.98 6.41 12 9.45 3.03 3.04 7.2 8.35 9.27 11.8 2.07 3.45 4.66 9.2 5.76 12.77 1.1 3.57 2.42 8.98 2.94 12 0.52 3.02 0.79 12.48 0.59 21-0.2 8.8-1.08 19.39-2.05 24.5-0.93 4.95-2.84 12.38-4.24 16.5-1.4 4.13-4.1 10.65-6 14.5-1.9 3.85-4.9 9.02-6.68 11.5-1.77 2.48-5.44 6.92-8.15 9.89-2.72 2.96-7.19 7.06-9.94 9.11-2.75 2.05-8.03 5.36-11.75 7.36-3.71 2-7.31 3.57-8 3.48-0.68-0.09-2.37 0.13-3.75 0.5-1.37 0.37-4.52 0.86-7 1.1-2.47 0.24-12.6 1.57-22.5 2.95-9.9 1.39-53.77 7.74-97.5 14.12-43.72 6.37-81.75 11.54-84.5 11.47-2.75-0.06-5.1-0.2-5.22-0.3-0.12-0.1-1.17-4.91-2.34-10.68-1.17-5.77-2.75-13.87-3.52-18-0.77-4.12-1.63-8.06-1.91-8.75-0.39-0.96-4.85-1.14-19.26-0.8-10.31 0.25-28.53 0.48-62.25 0.55l-2.29 4.75c-1.26 2.61-5.84 11.5-10.18 19.75-4.33 8.25-8.21 15.23-8.61 15.5-0.4 0.27-14.72 0.61-31.82 0.75-24.36 0.2-31.09-0.02-31.07-1 0.02-0.69 3.01-6.87 6.64-13.75 3.64-6.87 9.19-17.45 12.34-23.5 3.14-6.05 7.74-14.83 10.22-19.5 2.47-4.68 7.42-14.12 11-21 3.57-6.87 10.23-19.7 14.78-28.5 4.56-8.8 10.31-19.82 12.8-24.5 2.48-4.68 8.11-15.48 12.5-24 4.4-8.52 9.5-18.54 11.35-22.25 1.84-3.71 3.36-7.31 3.37-8 0.02-0.69-0.32-1.64-0.75-2.11-0.43-0.48-2.66-5.2-4.96-10.5-2.3-5.3-3.88-9.93-3.5-10.29 0.38-0.35 24.91-0.8 54.53-1 53.02-0.34 53.86-0.32 54.88 1.65 0.57 1.1 1.7 5.38 2.52 9.5 0.82 4.13 2.07 10.2 2.79 13.5 0.71 3.3 1.96 9.15 2.76 13 0.81 3.85 3.36 15.55 5.66 26 2.31 10.45 6.25 28.23 8.75 39.5 2.51 11.27 5.15 23.43 5.88 27 0.73 3.57 2.05 9.65 2.93 13.5 0.88 3.85 2.22 9.92 2.98 13.5 0.76 3.58 1.97 9.49 2.69 13.14 0.72 3.65 1.54 6.89 1.81 7.2 0.28 0.3 1.07-2.91 1.77-7.14 0.69-4.24 1.48-9.72 1.75-12.2 0.27-2.48 2.7-20.25 5.4-39.5 2.7-19.25 5.42-38.82 6.06-43.5 0.63-4.68 1.35-10.3 1.6-12.5 0.24-2.2 0.88-5.8 1.43-8 0.54-2.2 1.19-6.25 1.44-9 0.26-2.75 0.7-7.02 0.98-9.5 0.29-2.48 0.79-6.07 1.12-8 0.44-2.6-0.02-4.66-1.79-8-1.31-2.48-4.27-7.99-6.57-12.25-2.93-5.42-3.81-7.9-2.94-8.24 0.69-0.28 10.93-0.61 22.75-0.75 11.83-0.14 40.63-0.23 64-0.2zm-12.46 48.76c-0.29 1.2-1.41 8.93-2.49 17.18-1.08 8.25-4.23 31.2-7 51-2.77 19.8-5.04 37.13-5.05 38.5v2.5c25.51-1.16 33.04-2.06 38.25-3.44 4.27-1.13 10.79-3.51 14.5-5.27 4.25-2.03 9.04-5.46 12.91-9.25 4.52-4.45 7.23-8.29 10.24-14.54 2.24-4.68 5.06-12.1 6.26-16.5 1.72-6.34 2.19-10.91 2.25-22 0.07-13-0.11-14.39-2.49-19.5-1.4-3.02-4.16-7.07-6.11-9-1.96-1.93-5.98-4.74-8.93-6.25-2.96-1.51-8.86-3.42-13.13-4.25-4.26-0.82-13.93-1.71-21.5-1.96-7.56-0.25-14.52-0.21-15.47 0.08-0.94 0.29-1.95 1.51-2.24 2.7zm-210.58 74.93c0.02 0.41 10.8 0.64 23.96 0.5 13.15-0.14 24.19-0.48 24.52-0.75 0.34-0.27-1.93-13.1-5.03-28.5-3.1-15.4-6.09-30.48-6.63-33.5-0.55-3.02-1.29-5.82-1.66-6.2-0.36-0.39-8.43 14.68-17.93 33.5-9.5 18.81-17.25 34.54-17.23 34.95zm654.54-83.54c3.3 0.25 8.48 1.14 11.5 1.96 3.03 0.82 8.65 3.09 12.5 5.04 3.85 1.95 11.4 6.75 16.78 10.67 5.38 3.92 11.28 8.25 13.11 9.62 1.84 1.38 6.66 5.08 10.73 8.23 4.06 3.16 8.96 7.06 10.88 8.68 1.93 1.61 3.28 3.17 3 3.45-0.27 0.28-18.27 3.47-40 7.09-21.72 3.62-41.97 7.03-45 7.58-3.02 0.54-13.15 2.3-22.5 3.91-9.35 1.6-28.47 4.95-42.5 7.44-14.02 2.49-30.22 5.43-36 6.53-5.77 1.1-15.45 2.97-21.5 4.15-6.05 1.18-15.27 2.96-20.5 3.94-5.22 0.98-13.55 2.54-18.5 3.47-4.95 0.92-9.22 1.37-9.5 0.99-0.27-0.38 0.33-1.2 1.33-1.83 1.01-0.62 5.15-3.61 9.21-6.63 4.05-3.02 12.68-9.24 19.17-13.8 6.49-4.57 14.32-9.97 17.41-12 3.09-2.04 8.71-5.77 12.5-8.29 3.79-2.52 11.83-7.68 17.88-11.45 6.05-3.78 17.75-10.5 26-14.95 8.25-4.44 19.05-9.81 24-11.93 4.95-2.12 13.05-5.17 18-6.77 4.95-1.6 12.83-3.51 17.5-4.24 4.68-0.74 11.2-1.12 14.5-0.86zm80.75 58.39c0.97-0.06 1.75 0.35 1.75 0.9 0 0.55-2.74 7.41-6.1 15.25-3.36 7.84-8.21 18.52-10.79 23.75-2.57 5.23-7.2 13.77-10.29 19-3.09 5.23-7.8 11.99-10.47 15.04-2.66 3.05-6.42 6.92-8.35 8.59-1.92 1.67-6.2 4.85-9.5 7.07-3.3 2.21-8.02 4.94-10.5 6.06-2.47 1.11-6.75 2.8-9.5 3.75-2.75 0.95-6.35 2.08-8 2.52-1.65 0.44-5.47 1.47-8.5 2.3-3.02 0.83-8.2 1.99-11.5 2.59-3.3 0.6-7.12 1.3-8.5 1.57-1.37 0.26-3.62 0.7-5 0.98-1.37 0.28-10.15 1.4-19.5 2.48-9.35 1.09-22.85 2.48-30 3.09-7.15 0.61-15.02 1.28-17.5 1.48-2.47 0.21-9.9 0.88-16.5 1.5-6.6 0.61-14.25 1.28-17 1.48-2.75 0.2-13.55 1.08-24 1.96-10.45 0.89-29.57 2.95-42.5 4.58-15.98 2.02-23.82 2.64-24.5 1.95-0.55-0.56-0.77-1.01-0.5-1 0.28 0.01 7.48-1.75 16-3.91 8.53-2.17 28.1-7.15 43.5-11.07 15.4-3.92 29.8-7.52 32-8.01 2.2-0.48 5.58-1.31 7.5-1.84 1.93-0.53 16.33-4.19 32-8.12 15.68-3.94 33-8.51 38.5-10.15 5.5-1.65 10.9-3.44 12-3.97 1.76-0.85 1.7-0.91-0.5-0.46-1.37 0.28-12.62 2.12-25 4.1-12.37 1.98-28.8 4.93-36.5 6.56-7.7 1.63-16.92 3.58-20.5 4.34-3.57 0.76-11 2.3-16.5 3.43-5.5 1.13-19.22 4.11-30.5 6.63-11.27 2.52-27.7 6.18-36.5 8.14-8.8 1.96-18.7 4.15-22 4.85-3.3 0.71-9.6 2.06-14 3.01-4.4 0.94-10.7 2.29-14 3-3.3 0.7-19.27 4.05-35.5 7.44-16.22 3.39-34.22 7.08-40 8.2-5.77 1.13-13.42 2.66-17 3.4-3.57 0.74-9.87 2.06-14 2.93-4.12 0.87-8.62 1.43-12.5 0.92l2.5-1.1c1.38-0.61 4.3-1.59 6.5-2.19 2.2-0.61 13.9-3.82 26-7.16 12.1-3.33 24.93-6.92 28.5-7.96 3.58-1.05 9.2-2.64 12.5-3.54 3.3-0.9 7.35-2.01 9-2.46 1.65-0.46 9.3-2.7 17-4.98 7.7-2.28 16.48-4.81 19.5-5.62 3.03-0.81 6.85-1.9 8.5-2.42 1.65-0.52 7.5-2.28 13-3.91 5.5-1.63 19.23-5.73 30.5-9.11 11.28-3.38 23.32-7 26.75-8.05 3.44-1.05 9.07-2.77 12.5-3.81 3.44-1.05 11.43-3.57 17.75-5.61 6.33-2.04 12.85-4.05 14.5-4.47 1.65-0.43 21.9-7.1 45-14.84 23.1-7.74 47.18-15.92 53.5-18.17 6.33-2.26 15.33-5.39 20-6.98 4.68-1.58 13.68-4.75 20-7.04 6.33-2.29 23.43-8.36 38-13.5 14.58-5.14 28.98-10.23 32-11.32 3.03-1.08 6.29-2.02 7.25-2.07zm-535.5 119.99c1.59-0.06 2.37 0.58 2.65 2.16 0.22 1.24 0.91 5.17 1.53 8.75 0.62 3.58 1.01 6.53 0.85 6.57-0.15 0.04-4.55 1-9.78 2.14-6.35 1.37-12.15 1.95-17.5 1.75-4.4-0.16-10.92 0.32-14.5 1.08-3.57 0.76-9.42 2.05-13 2.86-3.57 0.82-13.25 2.66-21.5 4.1-8.25 1.45-17.92 3.26-21.5 4.03-3.57 0.76-9.42 1.84-13 2.39-3.57 0.55-10.55 1.65-15.5 2.44-4.95 0.78-12.82 2.15-17.5 3.03-4.67 0.88-15.47 2.75-24 4.14-8.52 1.4-16.4 2.76-17.5 3.03-1.1 0.27-5.03 0.82-8.74 1.22-3.71 0.39-6.76 0.49-6.78 0.22-0.02-0.27 1.89-1.01 4.24-1.64 2.36-0.63 6.31-1.65 8.78-2.27 2.48-0.61 9.68-2.25 16-3.63 6.33-1.39 18.93-4.32 28-6.52 9.08-2.19 19.43-4.68 23-5.52 3.58-0.85 7.85-1.94 9.5-2.44 1.65-0.5 7.05-1.83 12-2.96 4.95-1.13 13.28-3.19 18.5-4.58 5.23-1.39 12.65-3.38 16.5-4.43 3.85-1.04 13.3-3.56 21-5.59 7.7-2.02 17.83-4.79 22.5-6.15 4.68-1.35 9.63-2.83 11-3.28 1.38-0.45 3.52-0.86 4.75-0.9z"/>
</svg>